<?xml version="1.0" standalone="no"?>
<!DOCTYPE svg PUBLIC "-//W3C//DTD SVG 20010904//EN"
 "http://www.w3.org/TR/2001/REC-SVG-20010904/DTD/svg10.dtd">
<svg version="1.0" xmlns="http://www.w3.org/2000/svg"
 width="461.000000pt" height="461.000000pt" viewBox="0 0 461.000000 461.000000"
 preserveAspectRatio="xMidYMid meet">
<metadata>
Created by potrace 1.14, written by Peter Selinger 2001-2017
</metadata>
<g transform="translate(0.000000,461.000000) scale(0.100000,-0.100000)"
fill="#000000" stroke="none">
<path d="M2139 4599 c-721 -51 -1369 -432 -1769 -1039 -82 -125 -200 -366
-249 -512 -130 -382 -157 -814 -76 -1213 121 -592 489 -1129 1005 -1465 218
-141 525 -270 765 -318 197 -41 257 -46 490 -46 192 0 251 4 355 22 174 31
328 73 465 126 781 306 1321 982 1451 1816 25 159 25 509 0 670 -116 749 -579
1386 -1252 1723 -275 137 -560 214 -879 237 -152 11 -150 11 -306 -1z m1277
-850 c60 -30 126 -94 155 -150 44 -85 24 -204 -53 -319 -36 -55 -39 -63 -29
-92 6 -17 11 -40 11 -52 0 -14 12 -28 38 -41 20 -11 51 -41 68 -66 64 -96 69
-240 15 -410 -39 -121 -46 -173 -31 -228 6 -23 9 -46 6 -49 -12 -11 -88 33
-122 71 -20 22 -49 67 -65 102 -30 63 -79 238 -79 281 0 12 -4 25 -8 28 -10 6
-125 -189 -143 -241 -6 -18 -15 -33 -19 -33 -12 0 -65 143 -81 215 -17 82 -15
238 5 300 9 28 16 53 16 56 0 4 -55 9 -122 12 -197 8 -341 59 -400 141 -41 56
-37 63 26 58 62 -5 125 13 229 65 87 43 165 63 248 63 123 0 207 -41 241 -117
10 -23 24 -43 31 -43 7 0 24 -6 39 -14 31 -17 33 -15 71 59 34 66 49 134 37
174 -20 71 -81 123 -168 145 -45 12 -47 14 -50 50 -5 60 2 69 47 63 22 -3 61
-16 87 -28z m-791 -582 c61 -41 188 -75 315 -84 l91 -6 -8 -46 c-14 -83 -7
-221 16 -311 25 -97 116 -295 131 -285 5 3 10 12 10 18 0 7 25 64 56 127 l56
115 27 -86 c15 -47 41 -111 58 -142 l31 -57 -81 -73 c-482 -430 -579 -543
-984 -1147 -114 -170 -222 -263 -378 -326 -108 -44 -195 -58 -329 -51 -81 3
-133 12 -191 31 -229 74 -417 261 -491 491 -38 117 -45 298 -15 415 67 268
261 473 521 550 331 98 533 187 630 276 32 30 101 105 154 167 86 101 143 172
298 375 27 34 51 62 56 62 4 0 16 -6 27 -13z"/>
<path d="M2997 3379 c-21 -5 -89 -31 -151 -59 -62 -27 -119 -50 -126 -50 -9 0
-11 -3 -4 -10 21 -21 173 -51 294 -57 107 -5 128 -9 148 -26 27 -25 27 -44 2
-125 -23 -72 -25 -195 -6 -277 l11 -50 53 86 c54 90 64 99 111 99 43 0 62 -30
77 -122 17 -97 46 -193 78 -257 l23 -45 8 34 c4 19 20 77 36 128 34 108 40
237 13 300 -17 42 -61 92 -81 92 -25 0 -53 39 -53 75 0 46 -48 101 -101 115
-39 11 -69 41 -69 70 0 24 -40 57 -89 75 -47 16 -114 18 -174 4z"/>
<path d="M2309 2668 c-193 -225 -248 -272 -401 -342 -95 -43 -248 -98 -368
-131 -118 -33 -216 -84 -286 -148 -45 -40 -54 -55 -54 -82 0 -24 7 -39 26 -54
40 -31 67 -26 126 25 61 52 149 96 228 114 160 37 435 152 559 234 113 76 341
334 341 386 0 41 -32 70 -75 70 -30 0 -41 -9 -96 -72z"/>
<path d="M1103 1810 c-28 -11 -40 -34 -59 -116 -18 -77 -9 -114 32 -133 60
-27 89 -1 115 104 22 90 16 124 -27 144 -29 13 -31 13 -61 1z"/>
</g>
</svg>
